<svg xmlns="http://www.w3.org/2000/svg" xmlns:xlink="http://www.w3.org/1999/xlink" viewBox="0,0,256,256" width="50px" height="50px" fill-rule="nonzero" fill="#e8e6e3"><g fill="#e8e6e3" fill-rule="nonzero" stroke="none" stroke-width="1" stroke-linecap="butt" stroke-linejoin="miter" stroke-miterlimit="10" stroke-dasharray="" stroke-dashoffset="0" font-family="none" font-weight="none" font-size="none" text-anchor="none" style="mix-blend-mode: normal"><g transform="scale(5.12,5.12)"><path d="M4,4v41c0.00006,0.55226 0.44774,0.99994 1,1h40c0.55226,-0.00006 0.99994,-0.44774 1,-1v-13h-2v12h-38v-40zM37.99023,4.99023c-0.40692,0.00011 -0.77321,0.24676 -0.92633,0.62377c-0.15312,0.37701 -0.06255,0.80921 0.22907,1.09303l4.29297,4.29297h-6.56055c-10.02671,-0.24953 -16.52417,2.39498 -20.33008,7.39844c-3.80591,5.00346 -4.86371,12.10851 -4.69531,20.62109c0.01079,0.55228 0.46725,0.99126 1.01953,0.98047c0.55228,-0.01079 0.99126,-0.46725 0.98047,-1.01953c-0.1646,-8.32042 0.93202,-14.9603 4.28711,-19.37109c3.35509,-4.41079 9.02521,-6.84984 18.6875,-6.60937h0.01367h6.59766l-4.29297,4.29297c-0.26124,0.25082 -0.36648,0.62327 -0.27512,0.97371c0.09136,0.35044 0.36503,0.62411 0.71547,0.71547c0.35044,0.09136 0.72289,-0.01388 0.97371,-0.27512l6.70703,-6.70703l-6.70703,-6.70703c-0.18827,-0.19353 -0.4468,-0.30272 -0.7168,-0.30273z"></path></g></g></svg>