<svg xmlns="http://www.w3.org/2000/svg" xmlns:xlink="http://www.w3.org/1999/xlink" viewBox="0,0,256,256" width="250px" height="250px" fill-rule="nonzero" fill="#e8e6e3"><g fill="#e8e6e3" fill-rule="nonzero" stroke="none" stroke-width="1" stroke-linecap="butt" stroke-linejoin="miter" stroke-miterlimit="10" stroke-dasharray="" stroke-dashoffset="0" font-family="none" font-weight="none" font-size="none" text-anchor="none" style="mix-blend-mode: normal"><g transform="scale(5.12,5.12)"><path d="M17,10c-4.95703,0 -9,4.04297 -9,9v16c0,0.55078 0.44922,1 1,1h19v10h2v-10h2v10h2v-10h13c0.55078,0 1,-0.44922 1,-1v-16c0,-4.95703 -4.04297,-9 -9,-9zM17,12c3.87891,0 7,3.12109 7,7v15h-14v-15c0,-3.87891 3.12109,-7 7,-7zM22.625,12h16.375c3.87891,0 7,3.12109 7,7v15h-20v-15c0,-2.82812 -1.32422,-5.34766 -3.375,-7zM32,17c-1.10547,0 -2,0.89453 -2,2c0,1.10547 0.89453,2 2,2c0.73828,0 1.37109,-0.40234 1.71875,-1h5.28125v4h4v-6h-9.28125c-0.34766,-0.59766 -0.98047,-1 -1.71875,-1zM13.71875,20c-0.55078,0.07813 -0.9375,0.58984 -0.85937,1.14063c0.07813,0.55078 0.58984,0.9375 1.14063,0.85938h6c0.35938,0.00391 0.69531,-0.18359 0.87891,-0.49609c0.17969,-0.3125 0.17969,-0.69531 0,-1.00781c-0.18359,-0.3125 -0.51953,-0.5 -0.87891,-0.49609h-6c-0.03125,0 -0.0625,0 -0.09375,0c-0.03125,0 -0.0625,0 -0.09375,0c-0.03125,0 -0.0625,0 -0.09375,0z"></path></g></g></svg>